name C:\Users\antoi\Documents\MyRepositories\upper-imu-dc\Results\main_tracking\Case_86\kinematics.mot
datacolumns 43
datarows 8
range 0.90000000 1.04000000
endheader 
time	clav_prot	clav_elev	scapula_abduction	scapula_elevation	scapula_upward_rot	scapula_winging	plane_elv	shoulder_elv	axial_rot	TrapeziusScapula_M/activation	TrapeziusScapula_S/activation	TrapeziusScapula_I/activation	TrapeziusClavicle_S/activation	SerratusAnterior_I/activation	SerratusAnterior_M/activation	SerratusAnterior_S/activation	Rhomboideus_S/activation	Rhomboideus_I/activation	LevatorScapulae/activation	Coracobrachialis/activation	DeltoideusClavicle_A/activation	DeltoideusScapula_P/activation	DeltoideusScapula_M/activation	LatissimusDorsi_S/activation	LatissimusDorsi_M/activation	LatissimusDorsi_I/activation	PectoralisMajorClavicle_S/activation	PectoralisMajorThorax_I/activation	PectoralisMajorThorax_M/activation	TeresMajor/activation	Infraspinatus_I/activation	Infraspinatus_S/activation	PectoralisMinor/activation	TeresMinor/activation	Subscapularis_S/activation	Subscapularis_M/activation	Subscapularis_I/activation	Supraspinatus_P/activation	Supraspinatus_A/activation	TRIlong/activation	BIC_long/activation	BIC_brevis/activation	
          0.90000000	        -34.46216231	          3.10794685	        -30.87456527	         -0.92894635	         19.37137288	         -0.15597381	        -14.87238754	          1.23916419	         64.02496650	          0.01000000	          0.01747955	          0.01000000	          0.02509188	          0.01429572	          0.05181746	          0.01000000	          0.01000000	          0.01000000	          0.02786361	          0.01000001	          0.01000000	          0.01000000	          0.01000000	          0.01000000	          0.01000000	          0.01000000	          0.01000013	          0.01000000	          0.01136999	          0.01579064	          0.01000000	          0.01000000	          0.01000000	          0.01000000	          0.01283177	          0.01000002	          0.02423185	          0.01000000	          0.01000000	          0.01333333	          0.01000000	          0.01333328	
          0.92000000	        -34.66045798	          2.55913978	        -31.12833464	         -1.29590842	         19.15534398	         -0.05598190	        -15.63943158	          1.66604285	         65.00189505	          0.01000000	          0.02188225	          0.01000000	          0.02451123	          0.02717093	          0.06046908	          0.01000000	          0.01000000	          0.01000000	          0.02324511	          0.01000000	          0.01000000	          0.01000001	          0.02368407	          0.01000000	          0.01000000	          0.01000000	          0.01000000	          0.01000000	          0.01000000	          0.01184298	          0.01000000	          0.01000000	          0.01000000	          0.01000000	          0.01095490	          0.01000001	          0.01880304	          0.01000000	          0.01000011	          0.01000000	          0.01000000	          0.01000000	
          0.94000000	        -34.89348155	          2.01869537	        -31.39433273	         -1.67372477	         18.98771210	          0.02931610	        -16.42891479	          2.04326000	         65.97536161	          0.01000000	          0.02408973	          0.01000000	          0.02696067	          0.03364220	          0.06379556	          0.01000000	          0.01000000	          0.01000000	          0.02081162	          0.01000000	          0.01000000	          0.01000000	          0.03205756	          0.01000000	          0.01000000	          0.01000000	          0.01000000	          0.01000000	          0.01000000	          0.01000000	          0.01000000	          0.01000000	          0.01000000	          0.01000000	          0.01291477	          0.01000002	          0.01746064	          0.01000000	          0.01172622	          0.01000000	          0.01000000	          0.01000000	
          0.96000000	        -35.12833957	          1.53209839	        -31.63291427	         -2.03321293	         18.90653142	          0.08461851	        -17.22074425	          2.35905520	         66.96478383	          0.01000000	          0.02482164	          0.01000000	          0.02557016	          0.03698472	          0.06278246	          0.01000000	          0.01000000	          0.01000000	          0.01886815	          0.01000000	          0.01000000	          0.01000000	          0.02850584	          0.01000000	          0.01000000	          0.01000000	          0.01000000	          0.01000000	          0.01000021	          0.01000000	          0.01000000	          0.01000000	          0.01000000	          0.01000000	          0.01000002	          0.01000000	          0.01309549	          0.01000000	          0.01591129	          0.01000000	          0.01345968	          0.01000000	
          0.98000000	        -35.36432652	          1.10540149	        -31.83876685	         -2.37165095	         18.92001536	          0.10469220	        -18.01654545	          2.60224875	         67.98852596	          0.01000000	          0.02652233	          0.01000000	          0.02472772	          0.04031949	          0.06141784	          0.01000000	          0.01000000	          0.01000000	          0.01535716	          0.01000000	          0.01000001	          0.01000000	          0.02619098	          0.01000000	          0.01000000	          0.01000000	          0.01000003	          0.01000000	          0.01313876	          0.01000000	          0.01000000	          0.01000000	          0.01000000	          0.01000000	          0.01000001	          0.01000000	          0.01000000	          0.01000000	          0.01788167	          0.01000000	          0.01625592	          0.01000000	
          1.00000000	        -35.59675315	          0.73705633	        -32.00392643	         -2.68903566	         19.02615906	          0.09058307	        -18.80957480	          2.76810700	         69.05232169	          0.01000000	          0.02849459	          0.01000000	          0.02361265	          0.04300895	          0.05929614	          0.01000000	          0.01000000	          0.01000000	          0.01166605	          0.01000000	          0.01231028	          0.01000000	          0.02360200	          0.01000000	          0.01000000	          0.01000000	          0.01118965	          0.01000000	          0.01671307	          0.01000000	          0.01000000	          0.01000000	          0.01000000	          0.01000000	          0.01000000	          0.01000000	          0.01000000	          0.01000000	          0.01728632	          0.01000000	          0.01914892	          0.01000000	
          1.02000000	        -35.82454163	          0.42147891	        -32.12704000	         -2.98771546	         19.21929533	          0.04438427	        -19.59295746	          2.85474511	         70.15943197	          0.01000000	          0.02956899	          0.01000000	          0.02231449	          0.04558483	          0.05702137	          0.01000000	          0.01000000	          0.01000000	          0.01000003	          0.01000000	          0.01545981	          0.01000000	          0.02100017	          0.01000000	          0.01000000	          0.01000000	          0.01308259	          0.01000000	          0.01752941	          0.01000000	          0.01000000	          0.01000000	          0.01000000	          0.01000000	          0.01000000	          0.01000000	          0.01000000	          0.01000000	          0.01740837	          0.01000000	          0.02094578	          0.01000000	
          1.04000000	        -36.04770200	          0.15103255	        -32.20990603	         -3.27085564	         19.49057029	         -0.03041074	        -20.35970642	          2.86404128	         71.30773071	          0.01000000	          0.03019732	          0.01000000	          0.02073365	          0.04845695	          0.05423251	          0.01000000	          0.01000000	          0.01000000	          0.01000000	          0.01000000	          0.01782296	          0.01000000	          0.01873068	          0.01000000	          0.01000000	          0.01000000	          0.01400063	          0.01000000	          0.01752833	          0.01000000	          0.01000001	          0.01000001	          0.01000000	          0.01000000	          0.01000000	          0.01000000	          0.01000000	          0.01000000	          0.01767468	          0.01000000	          0.02233461	          0.01000000	
